<?xml version="1.0" encoding="UTF-8" standalone="no"?>
<!DOCTYPE svg PUBLIC "-//W3C//DTD SVG 1.1//EN"
 "http://www.w3.org/Graphics/SVG/1.1/DTD/svg11.dtd">
<!-- Generated by graphviz version 2.46.1 (20210213.1702)
 -->
<!-- Title: G Pages: 1 -->
<svg width="769pt" height="340pt"
 viewBox="0.00 0.00 769.41 339.98" xmlns="http://www.w3.org/2000/svg" xmlns:xlink="http://www.w3.org/1999/xlink">
<g id="graph0" class="graph" transform="scale(1 1) rotate(0) translate(7.99 331.99)">
<title>G</title>
<polygon fill="#000000" stroke="transparent" points="-7.99,7.99 -7.99,-331.99 761.42,-331.99 761.42,7.99 -7.99,7.99"/>
<!-- drawer.ts -->
<g id="node1" class="node">
<title>drawer.ts</title>
<ellipse fill="none" stroke="#c6c5fe" cx="83.99" cy="-306" rx="46.29" ry="18"/>
<text text-anchor="middle" x="83.99" y="-302.3" font-family="Arial" font-size="14.00" fill="#c6c5fe">drawer.ts</text>
</g>
<!-- gluenet/client.ts -->
<g id="node2" class="node">
<title>gluenet/client.ts</title>
<ellipse fill="none" stroke="#ff6c60" cx="411.99" cy="-162" rx="71.49" ry="18"/>
<text text-anchor="middle" x="411.99" y="-158.3" font-family="Arial" font-size="14.00" fill="#ff6c60">gluenet/client.ts</text>
</g>
<!-- drawer.ts&#45;&gt;gluenet/client.ts -->
<g id="edge1" class="edge">
<title>drawer.ts&#45;&gt;gluenet/client.ts</title>
<path fill="none" stroke="#757575" d="M67.96,-288.9C50.8,-269.7 28.37,-237.51 46.99,-216 56.44,-205.08 234,-183.21 337.92,-171.26"/>
<polygon fill="#757575" stroke="#757575" points="338.51,-174.72 348.05,-170.1 337.71,-167.76 338.51,-174.72"/>
</g>
<!-- gluenet/device.ts -->
<g id="node3" class="node">
<title>gluenet/device.ts</title>
<ellipse fill="none" stroke="#ff6c60" cx="361.99" cy="-90" rx="76.89" ry="18"/>
<text text-anchor="middle" x="361.99" y="-86.3" font-family="Arial" font-size="14.00" fill="#ff6c60">gluenet/device.ts</text>
</g>
<!-- drawer.ts&#45;&gt;gluenet/device.ts -->
<g id="edge2" class="edge">
<title>drawer.ts&#45;&gt;gluenet/device.ts</title>
<path fill="none" stroke="#757575" d="M51.96,-292.79C34.39,-284.24 14.15,-270.93 3.99,-252 -8.77,-228.24 13.71,-148.11 17.99,-144 53.9,-109.47 186.27,-97.43 275.94,-93.24"/>
<polygon fill="#757575" stroke="#757575" points="276.27,-96.73 286.11,-92.79 275.96,-89.74 276.27,-96.73"/>
</g>
<!-- gluenet/device/display.ts -->
<g id="node4" class="node">
<title>gluenet/device/display.ts</title>
<ellipse fill="none" stroke="#c6c5fe" cx="347.99" cy="-234" rx="105.88" ry="18"/>
<text text-anchor="middle" x="347.99" y="-230.3" font-family="Arial" font-size="14.00" fill="#c6c5fe">gluenet/device/display.ts</text>
</g>
<!-- drawer.ts&#45;&gt;gluenet/device/display.ts -->
<g id="edge3" class="edge">
<title>drawer.ts&#45;&gt;gluenet/device/display.ts</title>
<path fill="none" stroke="#757575" d="M120.97,-295.19C163.01,-284.05 232.41,-265.65 283.42,-252.12"/>
<polygon fill="#757575" stroke="#757575" points="284.6,-255.43 293.37,-249.48 282.8,-248.66 284.6,-255.43"/>
</g>
<!-- gluenet/device/mouse.ts -->
<g id="node5" class="node">
<title>gluenet/device/mouse.ts</title>
<ellipse fill="none" stroke="#c6c5fe" cx="132.99" cy="-162" rx="105.88" ry="18"/>
<text text-anchor="middle" x="132.99" y="-158.3" font-family="Arial" font-size="14.00" fill="#c6c5fe">gluenet/device/mouse.ts</text>
</g>
<!-- drawer.ts&#45;&gt;gluenet/device/mouse.ts -->
<g id="edge4" class="edge">
<title>drawer.ts&#45;&gt;gluenet/device/mouse.ts</title>
<path fill="none" stroke="#757575" d="M55.5,-291.6C40.17,-282.72 22.67,-269.47 13.99,-252 6.86,-237.67 5.27,-229.42 13.99,-216 24.68,-199.52 41.82,-188.13 59.8,-180.26"/>
<polygon fill="#757575" stroke="#757575" points="61.27,-183.44 69.25,-176.46 58.66,-176.94 61.27,-183.44"/>
</g>
<!-- gluenet/graphics.ts -->
<g id="node6" class="node">
<title>gluenet/graphics.ts</title>
<ellipse fill="none" stroke="#cfffac" cx="139.99" cy="-234" rx="84.49" ry="18"/>
<text text-anchor="middle" x="139.99" y="-230.3" font-family="Arial" font-size="14.00" fill="#cfffac">gluenet/graphics.ts</text>
</g>
<!-- drawer.ts&#45;&gt;gluenet/graphics.ts -->
<g id="edge5" class="edge">
<title>drawer.ts&#45;&gt;gluenet/graphics.ts</title>
<path fill="none" stroke="#757575" d="M97.26,-288.41C104.06,-279.91 112.49,-269.37 120.06,-259.91"/>
<polygon fill="#757575" stroke="#757575" points="122.91,-261.95 126.42,-251.96 117.44,-257.58 122.91,-261.95"/>
</g>
<!-- gluenet/server.ts -->
<g id="node7" class="node">
<title>gluenet/server.ts</title>
<ellipse fill="none" stroke="#c6c5fe" cx="546.99" cy="-234" rx="75.29" ry="18"/>
<text text-anchor="middle" x="546.99" y="-230.3" font-family="Arial" font-size="14.00" fill="#c6c5fe">gluenet/server.ts</text>
</g>
<!-- drawer.ts&#45;&gt;gluenet/server.ts -->
<g id="edge6" class="edge">
<title>drawer.ts&#45;&gt;gluenet/server.ts</title>
<path fill="none" stroke="#757575" d="M127.6,-299.78C198.25,-291.12 342,-272.68 462.99,-252 469.24,-250.93 475.75,-249.75 482.24,-248.51"/>
<polygon fill="#757575" stroke="#757575" points="483.25,-251.88 492.4,-246.55 481.92,-245.01 483.25,-251.88"/>
</g>
<!-- gluenet/client.ts&#45;&gt;gluenet/device.ts -->
<g id="edge7" class="edge">
<title>gluenet/client.ts&#45;&gt;gluenet/device.ts</title>
<path fill="none" stroke="#757575" d="M394.3,-144.41C387.43,-136.08 379.86,-125.8 373.67,-116.49"/>
<polygon fill="#757575" stroke="#757575" points="376.55,-114.5 368.22,-107.96 370.65,-118.27 376.55,-114.5"/>
</g>
<!-- gluenet/packet.ts -->
<g id="node8" class="node">
<title>gluenet/packet.ts</title>
<ellipse fill="none" stroke="#cfffac" cx="413.99" cy="-18" rx="77.19" ry="18"/>
<text text-anchor="middle" x="413.99" y="-14.3" font-family="Arial" font-size="14.00" fill="#cfffac">gluenet/packet.ts</text>
</g>
<!-- gluenet/client.ts&#45;&gt;gluenet/packet.ts -->
<g id="edge8" class="edge">
<title>gluenet/client.ts&#45;&gt;gluenet/packet.ts</title>
<path fill="none" stroke="#757575" d="M427.22,-144.24C435.08,-134.44 443.87,-121.4 447.99,-108 452.69,-92.71 452.49,-87.35 447.99,-72 445.11,-62.19 439.8,-52.47 434.21,-44.09"/>
<polygon fill="#757575" stroke="#757575" points="437.03,-42.02 428.39,-35.9 431.33,-46.07 437.03,-42.02"/>
</g>
<!-- gluenet/device.ts&#45;&gt;gluenet/client.ts -->
<g id="edge9" class="edge">
<title>gluenet/device.ts&#45;&gt;gluenet/client.ts</title>
<path fill="none" stroke="#757575" d="M379.84,-107.79C386.67,-116.11 394.19,-126.32 400.35,-135.58"/>
<polygon fill="#757575" stroke="#757575" points="397.43,-137.51 405.76,-144.05 403.33,-133.74 397.43,-137.51"/>
</g>
<!-- gluenet/device.ts&#45;&gt;gluenet/packet.ts -->
<g id="edge10" class="edge">
<title>gluenet/device.ts&#45;&gt;gluenet/packet.ts</title>
<path fill="none" stroke="#757575" d="M374.57,-72.05C380.83,-63.63 388.52,-53.28 395.44,-43.97"/>
<polygon fill="#757575" stroke="#757575" points="398.36,-45.9 401.51,-35.79 392.74,-41.73 398.36,-45.9"/>
</g>
<!-- gluenet/device/display.ts&#45;&gt;gluenet/device.ts -->
<g id="edge11" class="edge">
<title>gluenet/device/display.ts&#45;&gt;gluenet/device.ts</title>
<path fill="none" stroke="#757575" d="M340.48,-215.76C333.64,-197.7 325.51,-168.59 331.99,-144 334.48,-134.54 339.09,-124.99 343.96,-116.66"/>
<polygon fill="#757575" stroke="#757575" points="346.94,-118.49 349.26,-108.15 341,-114.79 346.94,-118.49"/>
</g>
<!-- gluenet/device/mouse.ts&#45;&gt;gluenet/device.ts -->
<g id="edge13" class="edge">
<title>gluenet/device/mouse.ts&#45;&gt;gluenet/device.ts</title>
<path fill="none" stroke="#757575" d="M182.11,-145.98C218.91,-134.74 269.25,-119.35 307.32,-107.71"/>
<polygon fill="#757575" stroke="#757575" points="308.67,-110.96 317.21,-104.69 306.62,-104.26 308.67,-110.96"/>
</g>
<!-- gluenet/server.ts&#45;&gt;gluenet/client.ts -->
<g id="edge14" class="edge">
<title>gluenet/server.ts&#45;&gt;gluenet/client.ts</title>
<path fill="none" stroke="#757575" d="M517.03,-217.46C497.54,-207.36 471.93,-194.08 450.88,-183.16"/>
<polygon fill="#757575" stroke="#757575" points="452.35,-179.99 441.86,-178.49 449.13,-186.2 452.35,-179.99"/>
</g>
<!-- gluenet/device/keyboard.ts -->
<g id="node9" class="node">
<title>gluenet/device/keyboard.ts</title>
<ellipse fill="none" stroke="#c6c5fe" cx="616.99" cy="-162" rx="115.08" ry="18"/>
<text text-anchor="middle" x="616.99" y="-158.3" font-family="Arial" font-size="14.00" fill="#c6c5fe">gluenet/device/keyboard.ts</text>
</g>
<!-- gluenet/device/keyboard.ts&#45;&gt;gluenet/device.ts -->
<g id="edge12" class="edge">
<title>gluenet/device/keyboard.ts&#45;&gt;gluenet/device.ts</title>
<path fill="none" stroke="#757575" d="M562.6,-146.07C520.53,-134.52 462.42,-118.57 419.57,-106.81"/>
<polygon fill="#757575" stroke="#757575" points="420.42,-103.41 409.85,-104.14 418.57,-110.16 420.42,-103.41"/>
</g>
<!-- text&#45;editor.ts -->
<g id="node10" class="node">
<title>text&#45;editor.ts</title>
<ellipse fill="none" stroke="#c6c5fe" cx="649.99" cy="-306" rx="58.49" ry="18"/>
<text text-anchor="middle" x="649.99" y="-302.3" font-family="Arial" font-size="14.00" fill="#c6c5fe">text&#45;editor.ts</text>
</g>
<!-- text&#45;editor.ts&#45;&gt;gluenet/client.ts -->
<g id="edge15" class="edge">
<title>text&#45;editor.ts&#45;&gt;gluenet/client.ts</title>
<path fill="none" stroke="#757575" d="M651.35,-287.78C651.92,-267.79 649.61,-235.13 630.99,-216 625.39,-210.25 537.11,-190.12 474.37,-176.39"/>
<polygon fill="#757575" stroke="#757575" points="475.05,-172.96 464.53,-174.25 473.56,-179.8 475.05,-172.96"/>
</g>
<!-- text&#45;editor.ts&#45;&gt;gluenet/device.ts -->
<g id="edge16" class="edge">
<title>text&#45;editor.ts&#45;&gt;gluenet/device.ts</title>
<path fill="none" stroke="#757575" d="M671.2,-289.04C709.28,-258.52 781.66,-190.75 740.99,-144 703.94,-101.41 549.11,-92.01 449.17,-90.5"/>
<polygon fill="#757575" stroke="#757575" points="449.11,-87 439.07,-90.37 449.02,-94 449.11,-87"/>
</g>
<!-- text&#45;editor.ts&#45;&gt;gluenet/device/display.ts -->
<g id="edge17" class="edge">
<title>text&#45;editor.ts&#45;&gt;gluenet/device/display.ts</title>
<path fill="none" stroke="#757575" d="M604.77,-294.52C555.23,-283.04 475.16,-264.48 417.59,-251.13"/>
<polygon fill="#757575" stroke="#757575" points="418.37,-247.72 407.84,-248.87 416.79,-254.54 418.37,-247.72"/>
</g>
<!-- text&#45;editor.ts&#45;&gt;gluenet/server.ts -->
<g id="edge19" class="edge">
<title>text&#45;editor.ts&#45;&gt;gluenet/server.ts</title>
<path fill="none" stroke="#757575" d="M626.87,-289.29C612.76,-279.7 594.51,-267.3 579.02,-256.77"/>
<polygon fill="#757575" stroke="#757575" points="580.98,-253.87 570.74,-251.14 577.04,-259.66 580.98,-253.87"/>
</g>
<!-- text&#45;editor.ts&#45;&gt;gluenet/device/keyboard.ts -->
<g id="edge18" class="edge">
<title>text&#45;editor.ts&#45;&gt;gluenet/device/keyboard.ts</title>
<path fill="none" stroke="#757575" d="M657.64,-288.07C664.78,-269.76 673.09,-239.98 663.99,-216 659.91,-205.26 652.55,-195.3 644.85,-186.98"/>
<polygon fill="#757575" stroke="#757575" points="647.29,-184.47 637.76,-179.83 642.31,-189.4 647.29,-184.47"/>
</g>
</g>
</svg>
